<svg id="Layer_1" data-name="Layer 1" xmlns="http://www.w3.org/2000/svg" viewBox="0 0 3061.42 3061.42"><defs><style>.cls-1{fill:#1d1d1b;}.cls-2{fill:#e2dd16;}</style></defs><path class="cls-1" d="M1878.13,1326.46l-63.48-172.12-287.56,784.58H840.15a26.05,26.05,0,0,1-26-26.05V984a26,26,0,0,1,26-26H945.69l385.1,510.88V957.91H1445a26.05,26.05,0,0,1,26,26v709.32h-131.6L954.4,1184.32V1817h472.19l318.15-859.09H1887l63,172.31Z"/><path class="cls-2" d="M2189.79,1209.5l60,68.27-28.93-315.11-98.37,88.93-.65-.25-.47,1.26-135.24,122.26,94.07-10.11L1950,1519.58l154.65,419.34h103.91a26.05,26.05,0,0,0,24.46-35l-149.38-406.77Z"/><path d="M1698.3,1753.75c-1-7.16-2.23-14.15-2.92-21.2-2.78-28.3,1.06-55.84,9.93-82.75,8.27-25.09,20.11-48.31,36.73-69a181.08,181.08,0,0,1,33.33-32.18,3.35,3.35,0,0,1,2.43-.55,411,411,0,0,1,116.3,46.58,5,5,0,0,1,2.57,3.81c6.87,37.7,1.93,74.15-11.6,109.69-9.29,24.39-22.16,46.63-39.66,66.1a192,192,0,0,1-22.65,21.33,4,4,0,0,1-3.55.9,414.62,414.62,0,0,1-119-41.4A22,22,0,0,1,1698.3,1753.75Zm113.79-132.58c-.87-.21-1.52-.42-2.19-.51-4.49-.64-9-1.29-13.48-1.85a3.48,3.48,0,0,0-3.62,2,3.23,3.23,0,0,0,.36,4,6.54,6.54,0,0,0,3.37,1.6c4.23.68,8.49,1.14,13,1.72l-4,10.68c-.6-.12-1.09-.24-1.59-.33-4.59-.75-9.16-1.59-13.77-2.22a3.7,3.7,0,0,0-4.26,3.43,3.81,3.81,0,0,0,3.58,4.17c1.07.14,2.16.17,3.22.35,3.33.55,6.65,1.15,10.15,1.76l-5,13.29c-.77-.27-1.41-.48-2-.71-3.84-1.43-7.65-2.91-11.5-4.3a3.75,3.75,0,0,0-5,2.21,3.86,3.86,0,0,0,2.21,4.9c.68.3,1.38.53,2.08.79l11.56,4.35-4.12,11-1.73-.61c-3.83-1.44-7.67-2.86-11.49-4.31a3.94,3.94,0,0,0-4,.36,3.74,3.74,0,0,0-1.52,3.6,3.84,3.84,0,0,0,2.74,3.18l13.33,5-5,13.47-11.43-7.34a3.82,3.82,0,1,0-4.45,6.21c1.17.89,2.38,1.76,3.63,2.53,3.14,1.92,6.31,3.78,9.58,5.73-1.27,3.36-2.54,6.75-3.85,10.24a13.41,13.41,0,0,1-1.47-.73c-3.24-2.1-6.49-4.18-9.68-6.34-2.07-1.41-4.22-1.29-5.62.45a3.77,3.77,0,0,0,1,5.64c3.39,2.38,6.89,4.6,10.37,6.85.83.55,1.75,1,2.66,1.47l-4.22,11.24c-3.65-2.77-7-5.38-10.44-7.86a6.4,6.4,0,0,0-3.19-1.26,3.3,3.3,0,0,0-3.32,2.47,3.64,3.64,0,0,0,1.25,4.29c4.22,3.24,8.51,6.4,12.94,9.72-.58,1.54-1.37,3.48-2,5.48a6,6,0,0,0-.3,2.64,3.62,3.62,0,0,0,3.31,2.95,3.72,3.72,0,0,0,3.92-2.41c.83-2,1.57-4.07,2.35-6.11l1.51.49c4.83,1.41,9.72,2.36,14.78,1.8a3.75,3.75,0,0,0,3-5.42c-.88-1.76-2.39-2.28-4.26-2.16a31.24,31.24,0,0,1-12.39-1.92c1.39-3.71,2.73-7.26,4.08-10.87,1.88.54,3.65,1.2,5.47,1.53,3.29.6,6.6,1.07,9.92,1.44a3.54,3.54,0,0,0,3.73-2.16,3.26,3.26,0,0,0-.5-4,6.11,6.11,0,0,0-3.42-1.47,46.22,46.22,0,0,1-12.46-2.69l3.91-10.43a20.35,20.35,0,0,0,2.06.64c4.38.9,8.74,1.95,13.16,2.57a3.64,3.64,0,0,0,4.06-4.53,3.76,3.76,0,0,0-3.8-3,46.07,46.07,0,0,1-12.75-2.91l5.07-13.54c4.56,1.71,8.91,3.36,13.28,5,2.34.86,4.46,0,5.24-2s-.15-4.17-2.57-5.13c-1.27-.51-2.56-1-3.83-1.44l-9.43-3.55,4.16-11c4.53,1.7,8.88,3.35,13.25,5,2.31.85,4.45,0,5.25-2s-.18-4.19-2.56-5.14c-1.8-.71-3.62-1.35-5.43-2l-7.83-3c1.74-4.61,3.4-9,5.12-13.59,2.12,1,4.08,1.77,5.91,2.78,2,1.1,3.87,2.39,5.75,3.65s4,1.1,5.34-.54a3.79,3.79,0,0,0-.59-5.45,19.82,19.82,0,0,0-3.18-2.28c-3.42-1.89-6.89-3.69-10.46-5.58l3.83-10.23a43,43,0,0,1,11.21,6.3c2,1.67,4.26,1.58,5.73-.2a3.7,3.7,0,0,0-.87-5.64c-3.83-2.51-7.86-4.72-11.84-7a5.17,5.17,0,0,0-1.67-.3l4.27-11.35a32.86,32.86,0,0,1,10.53,6.64c2,1.94,4.21,2.13,5.86.51s1.52-4-.5-6a40.39,40.39,0,0,0-11.63-7.63c-.5-.23-1-.48-1.55-.75.65-1.75,1.26-3.4,1.88-5,1.06-2.82.38-5-1.83-5.88s-4.23.22-5.37,3.23c-.67,1.79-1.35,3.57-2,5.37a16.82,16.82,0,0,0-1.82-.37c-4.79-.44-9.58-.89-14.38-1.26a3.41,3.41,0,0,0-3.39,2.14,3.6,3.6,0,0,0,.33,3.87c.89,1.3,2.22,1.57,3.72,1.64,4.23.22,8.45.57,13,.88C1814.79,1614,1813.46,1617.52,1812.09,1621.17Z"/><path d="M1791.76,1815.35a173.11,173.11,0,0,1-26.24,10.87,149.28,149.28,0,0,1-26.16,6.13,3,3,0,0,1-3.08-1.12,154.59,154.59,0,0,1-19.29-28.17c-2.81-5.24-5.33-10.63-7.82-16.15A433.2,433.2,0,0,0,1791.76,1815.35Z"/><path d="M1805.58,1530.24c1.81-.86,3.2-1.57,4.63-2.2a169.11,169.11,0,0,1,44.44-13.24,3.4,3.4,0,0,1,3.49,1.3,159.8,159.8,0,0,1,21,31.54c2.43,4.74,4.61,9.61,6.74,14.61A432.38,432.38,0,0,0,1805.58,1530.24Z"/><path d="M818.44,1999.21H839.8L870.64,2041v-41.78h23v79.19H872.31l-30.84-41.78v41.78h-23Z"/><path d="M914.72,1999.21h57.42v18.86H937.65v11h30.21V2048H937.65v11.57h35.94v18.86H914.72Z"/><path d="M1014.54,2037l-25.21-37.82h29.8l11.05,21.25,10.83-21.25h29l-25.43,39.28,26.68,39.91h-30l-12.71-23.24-11.67,23.24h-29Z"/><path d="M1105.09,2019.53h-23.23v-20.32h72v20.32h-23.24v58.87h-25.53Z"/><path d="M1199.6,1999.21h25.53v58.87h31.57v20.32h-57.1Z"/><path d="M1274.11,1999.21h57.41v18.86H1297v11h30.22V2048H1297v11.57h36v18.86h-58.87Z"/><path d="M1346.21,1999.21h28.14l14.06,50.95,14-50.95H1430l-29.07,79.19h-25.64Z"/><path d="M1444.27,1999.21h57.41v18.86h-34.49v11h30.22V2048h-30.22v11.57h36v18.86h-58.87Z"/><path d="M1522.1,1999.21h25.53v58.87h31.58v20.32H1522.1Z"/><path d="M1650.27,1999.21h26L1707,2078.4h-26.58l-5.1-16.36h-25.64l-5,16.36h-24.9Zm19.28,44.07-7.09-23-7.08,23Z"/><path d="M1722.79,1999.21h21.37L1775,2041v-41.78h23v79.19h-21.36l-30.85-41.78v41.78h-23Z"/><path d="M1844.4,1999.21h26l30.63,79.19h-26.57l-5.1-16.36h-25.64l-5,16.36h-24.9Zm19.27,44.07-7.08-23-7.09,23Z"/><path d="M1916.92,1999.21h25.53v58.87H1974v20.32h-57.1Z"/><path d="M1998.2,2046.93l-28.14-47.72h28l12.92,28,12.92-28h27.41l-28.13,47.72v31.47h-25Z"/><path d="M2089,2080.07a69.75,69.75,0,0,1-16.57-2q-8.13-2-12.5-5l2.08-19.91a42.74,42.74,0,0,0,12,5.16,51.57,51.57,0,0,0,13.71,1.93q9.48,0,9.48-5.11a3.75,3.75,0,0,0-1.1-2.76,10.2,10.2,0,0,0-3.49-2,73.91,73.91,0,0,0-7.08-2.19q-12.61-3.22-18.44-9.27t-5.84-15.94q0-11.88,8.39-18.66t23.29-6.77a58.9,58.9,0,0,1,14.17,1.72,37.39,37.39,0,0,1,11.46,4.64l-3.13,19.27a36.26,36.26,0,0,0-10-4.22,43.19,43.19,0,0,0-11.25-1.61q-4.38,0-6.46,1.2a4.14,4.14,0,0,0,0,7.19,30.7,30.7,0,0,0,7.81,2.76q14.07,3.65,20.37,9.69t6.31,15.84q0,12.41-8.7,19.22T2089,2080.07Z"/><path d="M2139.6,1999.21h25.53v79.19H2139.6Z"/><path d="M2211.6,2080.07a69.75,69.75,0,0,1-16.57-2q-8.13-2-12.5-5l2.08-19.91a42.8,42.8,0,0,0,12,5.16,51.5,51.5,0,0,0,13.7,1.93q9.48,0,9.48-5.11a3.74,3.74,0,0,0-1.09-2.76,10.3,10.3,0,0,0-3.49-2q-2.4-.93-7.09-2.19-12.6-3.22-18.44-9.27t-5.84-15.94q0-11.88,8.39-18.66t23.29-6.77a58.84,58.84,0,0,1,14.17,1.72,37.29,37.29,0,0,1,11.46,4.64l-3.12,19.27a36.34,36.34,0,0,0-10-4.22,43.13,43.13,0,0,0-11.25-1.61q-4.38,0-6.46,1.2a4.15,4.15,0,0,0,0,7.19,30.66,30.66,0,0,0,7.82,2.76q14.05,3.65,20.37,9.69t6.3,15.84q0,12.41-8.7,19.22T2211.6,2080.07Z"/></svg>